<svg xmlns="http://www.w3.org/2000/svg" xmlns:xlink="http://www.w3.org/1999/xlink" width="1080" zoomAndPan="magnify" viewBox="0 0 810 809.999993" height="1080" preserveAspectRatio="xMidYMid meet" version="1.2"><defs><clipPath id="8c8305d71d"><path d="M 365 747 L 440 747 L 440 794.964844 L 365 794.964844 Z M 365 747 "/></clipPath><clipPath id="f4cd375fff"><path d="M 365 760 L 440 760 L 440 794.964844 L 365 794.964844 Z M 365 760 "/></clipPath><clipPath id="90ba733193"><path d="M 457 747 L 532 747 L 532 794.964844 L 457 794.964844 Z M 457 747 "/></clipPath><clipPath id="2252bc5eb2"><path d="M 457 760 L 532 760 L 532 794.964844 L 457 794.964844 Z M 457 760 "/></clipPath><clipPath id="5edecb8aa8"><path d="M 101.464844 728.046875 L 104.335938 728.046875 L 104.335938 730.484375 L 101.464844 730.484375 Z M 101.464844 728.046875 "/></clipPath><clipPath id="7afe2d7826"><path d="M 104.324219 728.925781 C 103.050781 730.949219 101.851562 730.574219 101.625 730.125 C 101.324219 729.75 101.550781 728.476562 102 728.175781 C 102.375 727.875 103.949219 728.324219 103.949219 728.324219 "/></clipPath></defs><g id="7ef0d5ecdd"><g clip-rule="nonzero" clip-path="url(#8c8305d71d)"><path style=" stroke:none;fill-rule:nonzero;fill:#fbb88e;fill-opacity:1;" d="M 438.304688 791.605469 C 434.6875 794.804688 370.773438 795.011719 368.644531 794.804688 C 366.519531 794.597656 363.976562 792.117188 366.550781 786.636719 C 369.125 781.152344 403.628906 766.171875 407.417969 761.230469 C 407.519531 761.109375 407.605469 760.976562 407.675781 760.832031 C 409.769531 756.402344 407.675781 747.417969 407.675781 747.417969 C 407.675781 747.417969 433.730469 748.570312 433.488281 748.105469 C 433.488281 748.316406 434.625 753.796875 435.890625 760.816406 C 437.984375 772.535156 440.589844 789.496094 438.304688 791.605469 Z M 438.304688 791.605469 "/></g><g clip-rule="nonzero" clip-path="url(#f4cd375fff)"><path style=" stroke:none;fill-rule:nonzero;fill:#20172a;fill-opacity:1;" d="M 438.304688 791.605469 C 434.6875 794.804688 370.773438 795.011719 368.644531 794.804688 C 366.519531 794.597656 363.976562 792.117188 366.550781 786.636719 C 369.125 781.152344 403.628906 766.171875 407.417969 761.230469 C 408.988281 761.707031 410.425781 762.433594 411.738281 763.421875 C 416.871094 767.164062 421.238281 771.046875 427.921875 769.960938 C 434.609375 768.875 432.914062 760.5625 435.921875 760.832031 C 437.984375 772.535156 440.589844 789.496094 438.304688 791.605469 Z M 438.304688 791.605469 "/></g><g clip-rule="nonzero" clip-path="url(#90ba733193)"><path style=" stroke:none;fill-rule:nonzero;fill:#fbb88e;fill-opacity:1;" d="M 530.640625 791.605469 C 527.027344 794.804688 463.113281 795.011719 460.984375 794.804688 C 458.859375 794.597656 456.3125 792.117188 458.890625 786.636719 C 461.464844 781.152344 496.03125 766.171875 499.757812 761.230469 C 499.855469 761.109375 499.941406 760.976562 500.011719 760.832031 C 502.109375 756.402344 500.011719 747.417969 500.011719 747.417969 C 500.011719 747.417969 526.066406 748.570312 525.828125 748.105469 C 525.828125 748.316406 526.964844 753.796875 528.226562 760.816406 C 530.324219 772.535156 532.945312 789.496094 530.640625 791.605469 Z M 530.640625 791.605469 "/></g><g clip-rule="nonzero" clip-path="url(#2252bc5eb2)"><path style=" stroke:none;fill-rule:nonzero;fill:#20172a;fill-opacity:1;" d="M 530.640625 791.605469 C 527.027344 794.804688 463.113281 795.011719 460.984375 794.804688 C 458.859375 794.597656 456.3125 792.117188 458.890625 786.636719 C 461.464844 781.152344 496.03125 766.171875 499.757812 761.230469 C 501.328125 761.707031 502.765625 762.433594 504.074219 763.421875 C 509.210938 767.164062 513.574219 771.046875 520.261719 769.960938 C 526.949219 768.875 525.253906 760.5625 528.257812 760.832031 C 530.324219 772.535156 532.945312 789.496094 530.640625 791.605469 Z M 530.640625 791.605469 "/></g><path style=" stroke:none;fill-rule:nonzero;fill:#20172a;fill-opacity:1;" d="M 370.519531 505.1875 C 370.183594 506.496094 389.710938 731.976562 390.960938 734.613281 C 392.207031 737.25 435.152344 736.820312 437.792969 732.917969 C 440.429688 729.019531 438.449219 624.847656 437.792969 613.976562 C 437.136719 603.105469 444.0625 558.933594 448.347656 556.296875 C 452.636719 553.660156 458.25 642.992188 464.503906 666.0625 C 470.757812 689.132812 486.273438 736.277344 486.273438 736.597656 C 486.273438 736.917969 523.539062 733.207031 523.875 732.917969 C 524.210938 732.632812 519.589844 639.683594 519.925781 629.132812 C 520.261719 618.582031 526.5 501.238281 526.5 501.238281 L 372.515625 505.1875 "/><path style=" stroke:none;fill-rule:nonzero;fill:#20172a;fill-opacity:1;" d="M 477.476562 734.308594 C 478.402344 733 527.621094 733.382812 530.257812 732.007812 C 532.898438 730.632812 534.304688 749.035156 531.074219 750.503906 C 527.84375 751.976562 486.066406 755.445312 482.304688 752.632812 C 478.546875 749.816406 477.476562 734.308594 477.476562 734.308594 Z M 477.476562 734.308594 "/><path style=" stroke:none;fill-rule:nonzero;fill:#20172a;fill-opacity:1;" d="M 387.632812 732.183594 C 388.558594 730.875 437.777344 731.257812 440.414062 729.882812 C 443.054688 728.507812 444.460938 746.90625 441.230469 748.378906 C 438 749.851562 396.222656 753.320312 392.460938 750.503906 C 388.703125 747.691406 387.632812 732.183594 387.632812 732.183594 Z M 387.632812 732.183594 "/><path style=" stroke:none;fill-rule:nonzero;fill:#fba779;fill-opacity:1;" d="M 208.121094 332.574219 C 206.414062 330.964844 204.996094 329.132812 203.867188 327.078125 C 200.125 320.441406 196.046875 310.738281 192.414062 309.617188 C 186.753906 307.890625 188 316.15625 190.449219 319.644531 C 192.894531 323.128906 191.679688 324.039062 185.328125 320.890625 C 178.980469 317.738281 169.847656 311.792969 166.96875 315.070312 C 162.808594 319.867188 176.5625 324.664062 176.753906 325.765625 C 176.867188 326.421875 172.484375 324.726562 168.085938 322.824219 C 164.757812 321.402344 162.28125 319.914062 160.585938 320.617188 C 156.632812 322.214844 156.96875 325.015625 159.449219 326.789062 C 161.929688 328.5625 173.84375 333.375 174.035156 334.367188 C 174.230469 335.359375 162.007812 329.570312 158.746094 331.886719 C 155.484375 334.207031 160.34375 337.46875 162.472656 338.285156 C 164.601562 339.097656 170.949219 342.328125 170.949219 342.328125 C 170.949219 342.328125 163.640625 339.003906 161.480469 341.960938 C 159.320312 344.917969 167.09375 347.875 170.917969 348.980469 C 175.714844 350.335938 190.703125 358.667969 197.277344 355.039062 C 198.925781 354.175781 208.121094 332.574219 208.121094 332.574219 Z M 208.121094 332.574219 "/><path style=" stroke:none;fill-rule:nonzero;fill:#419a88;fill-opacity:1;" d="M 381.953125 278.429688 C 381.074219 278.652344 369.636719 279.308594 358.648438 292.273438 C 347.660156 305.238281 306.105469 350.722656 305.226562 350.945312 C 304.347656 351.167969 209.371094 320.839844 207.386719 322.601562 C 205.402344 324.359375 189.359375 355.566406 189.582031 357.546875 C 189.808594 359.53125 276.4375 401.71875 297.324219 407.875 C 318.214844 414.027344 367.703125 371.105469 367.703125 371.105469 Z M 381.953125 278.429688 "/><path style=" stroke:none;fill-rule:nonzero;fill:#419a88;fill-opacity:1;" d="M 400.570312 270.433594 C 400.570312 270.433594 378.660156 275.054688 374.484375 280.027344 C 370.308594 285 354.921875 505.714844 354.921875 505.714844 C 354.921875 505.714844 434.082031 519.558594 478.484375 515.609375 C 522.886719 511.660156 535.871094 503.523438 535.871094 503.523438 C 535.871094 503.523438 517.398438 399.351562 517.191406 398.699219 C 516.984375 398.042969 503.769531 286.628906 500.925781 278.714844 C 498.078125 270.800781 462.054688 260.476562 462.054688 260.476562 Z M 400.570312 270.433594 "/><path style=" stroke:none;fill-rule:nonzero;fill:#fba779;fill-opacity:1;" d="M 569.941406 513.59375 C 569.917969 515.941406 569.535156 518.226562 568.789062 520.453125 C 566.472656 527.695312 562.121094 537.289062 563.785156 540.710938 C 566.359375 546.03125 571.589844 539.496094 572.46875 535.335938 C 573.347656 531.179688 574.867188 531.453125 576.867188 538.230469 C 578.867188 545.007812 580.722656 555.816406 585.089844 555.640625 C 591.390625 555.464844 585.570312 542.117188 586.289062 541.253906 C 586.6875 540.726562 588.414062 545.089844 590.03125 549.613281 C 591.246094 553.019531 591.855469 555.847656 593.519531 556.617188 C 597.390625 558.40625 599.210938 556.28125 598.8125 553.257812 C 598.414062 550.238281 593.871094 538.230469 594.445312 537.417969 C 595.023438 536.601562 599.148438 549.453125 603.035156 550.300781 C 606.921875 551.148438 606.058594 545.34375 605.195312 543.21875 C 604.332031 541.09375 602.394531 534.21875 602.394531 534.21875 C 602.394531 534.21875 604.9375 541.84375 608.570312 541.398438 C 612.199219 540.949219 609.097656 533.257812 607.304688 529.710938 C 605.082031 525.3125 600.90625 508.625 593.820312 506.273438 C 592.09375 505.699219 569.941406 513.59375 569.941406 513.59375 Z M 569.941406 513.59375 "/><path style=" stroke:none;fill-rule:nonzero;fill:#419a88;fill-opacity:1;" d="M 499.355469 276.636719 C 500.683594 276.207031 536.144531 302.792969 561.367188 371.566406 C 586.59375 440.34375 609.738281 510.445312 608.203125 513.753906 C 606.667969 517.066406 560.710938 527.824219 558.730469 527.167969 C 556.746094 526.511719 538.945312 444.980469 520.917969 409.378906 C 502.890625 373.773438 491.230469 349.15625 491.230469 349.15625 Z M 499.355469 276.636719 "/><path style=" stroke:none;fill-rule:nonzero;fill:#fbb88e;fill-opacity:1;" d="M 416.535156 245.925781 C 416.199219 246.421875 416.535156 265.703125 416.535156 265.703125 L 400.875 269.492188 C 400.875 269.492188 397.085938 286.804688 416.535156 293.152344 C 435.984375 299.5 462.039062 260.601562 462.039062 260.601562 C 462.039062 260.601562 458.746094 246.917969 459.066406 241.148438 C 459.386719 235.375 416.535156 245.925781 416.535156 245.925781 Z M 416.535156 245.925781 "/><path style=" stroke:none;fill-rule:nonzero;fill:#fbb88e;fill-opacity:1;" d="M 496.507812 210.5 C 495.519531 211.15625 463.191406 254.335938 419.335938 252.371094 C 375.476562 250.402344 345.675781 230.277344 347.53125 196.976562 C 349.386719 163.675781 356.347656 167.640625 358.984375 146.871094 C 361.625 126.105469 366.246094 105.675781 377.125 96.769531 C 388 87.863281 460.839844 93.140625 465.511719 94.132812 C 470.183594 95.121094 508.378906 125.113281 509.707031 126.441406 C 511.03125 127.769531 496.507812 210.5 496.507812 210.5 Z M 496.507812 210.5 "/><path style=" stroke:none;fill-rule:nonzero;fill:#20172a;fill-opacity:1;" d="M 371.460938 213.953125 C 373.246094 215.816406 375.265625 217.378906 377.515625 218.640625 C 379.765625 219.90625 382.152344 220.816406 384.671875 221.371094 C 395.550781 224.199219 403.117188 220.605469 408.152344 215.742188 C 412.128906 211.722656 415.007812 207.027344 416.789062 201.660156 C 413.960938 201.96875 411.128906 201.96875 408.296875 201.660156 C 403.464844 201.257812 398.664062 200.601562 393.902344 199.691406 C 385.738281 198.300781 377.785156 196.140625 370.039062 193.21875 C 367.925781 192.355469 366.839844 191.84375 366.839844 191.84375 C 366.839844 191.84375 363.097656 204.730469 371.460938 213.953125 Z M 371.460938 213.953125 "/><path style=" stroke:none;fill-rule:nonzero;fill:#ec6a43;fill-opacity:1;" d="M 371.460938 213.953125 C 373.246094 215.816406 375.265625 217.378906 377.515625 218.640625 C 379.765625 219.90625 382.152344 220.816406 384.671875 221.371094 C 395.550781 224.199219 403.117188 220.605469 408.152344 215.742188 C 401.996094 212.097656 389.152344 207.542969 371.460938 213.953125 Z M 371.460938 213.953125 "/><path style=" stroke:none;fill-rule:nonzero;fill:#ffffff;fill-opacity:1;" d="M 370.675781 198.957031 C 372.277344 201.417969 396.859375 208.148438 401.066406 207.0625 C 402.511719 206.53125 403.84375 205.796875 405.066406 204.867188 C 406.292969 203.933594 407.351562 202.84375 408.25 201.59375 C 403.417969 201.195312 398.617188 200.539062 393.855469 199.628906 C 385.691406 198.234375 377.738281 196.078125 369.988281 193.15625 C 369.671875 195.152344 369.902344 197.089844 370.675781 198.957031 Z M 370.675781 198.957031 "/><path style=" stroke:none;fill-rule:nonzero;fill:#20172a;fill-opacity:1;" d="M 389.648438 55.570312 C 389.648438 55.570312 366.230469 51.414062 359.640625 34.386719 C 359.640625 34.386719 337.550781 47.320312 353.050781 76.339844 C 368.550781 105.355469 384.386719 103.691406 399.882812 105.019531 C 415.382812 106.34375 423.957031 99.742188 423.957031 99.742188 C 425.957031 102.796875 428.21875 105.644531 430.742188 108.285156 C 433.261719 110.925781 436.003906 113.316406 438.960938 115.457031 C 441.921875 117.597656 445.050781 119.453125 448.347656 121.023438 C 451.644531 122.589844 455.058594 123.847656 458.585938 124.792969 C 482.003906 130.726562 491.886719 128.152344 491.886719 128.152344 C 491.886719 128.152344 468.132812 137.375 474.085938 159.789062 C 480.035156 182.203125 488.273438 188.46875 489.246094 188.789062 C 490.222656 189.109375 491.230469 214.671875 491.230469 214.671875 C 491.230469 214.671875 513.320312 222.363281 539.375 192.292969 C 565.429688 162.21875 572.964844 140.542969 567.078125 118.449219 C 561.191406 96.355469 537.390625 93.394531 535.425781 93.730469 C 533.457031 94.066406 541.039062 61.101562 511.351562 48.96875 C 481.667969 36.835938 438.449219 46.617188 419.988281 34.386719 C 401.53125 22.160156 393.277344 15.027344 392.957031 16.003906 C 392.636719 16.980469 374.820312 43.039062 389.648438 55.570312 Z M 389.648438 55.570312 "/><path style=" stroke:none;fill-rule:nonzero;fill:#ec6a43;fill-opacity:1;" d="M 404.859375 152.996094 C 404.980469 153.066406 405.089844 153.15625 405.179688 153.265625 C 405.242188 153.351562 405.296875 153.441406 405.339844 153.539062 L 405.339844 153.746094 C 405.339844 153.875 405.339844 153.90625 405.339844 153.988281 L 405.339844 154.304688 C 405.347656 154.472656 405.347656 154.636719 405.339844 154.800781 C 405.355469 155.09375 405.355469 155.386719 405.339844 155.679688 C 405.257812 156.222656 405.140625 156.753906 404.988281 157.28125 C 404.675781 158.308594 404.273438 159.300781 403.769531 160.253906 C 402.796875 162.109375 401.617188 163.824219 400.234375 165.402344 C 398.902344 166.957031 397.453125 168.394531 395.886719 169.71875 C 394.375 171.0625 392.773438 172.292969 391.085938 173.410156 C 389.488281 174.53125 387.632812 175.535156 386.015625 176.449219 C 385.617188 176.671875 385.234375 176.878906 384.929688 177.070312 C 384.625 177.261719 384.402344 177.472656 384.449219 177.375 C 384.546875 177.191406 384.597656 176.992188 384.609375 176.785156 C 384.632812 176.628906 384.632812 176.476562 384.609375 176.320312 L 384.609375 176.191406 C 384.714844 176.476562 384.851562 176.742188 385.023438 176.992188 C 385.953125 178.367188 387.183594 179.886719 388.382812 181.355469 C 389.582031 182.828125 390.832031 184.328125 392 185.894531 C 392.160156 186.101562 392.238281 186.339844 392.230469 186.601562 C 392.222656 186.863281 392.132812 187.09375 391.957031 187.289062 C 391.78125 187.488281 391.5625 187.605469 391.304688 187.644531 C 391.042969 187.683594 390.800781 187.632812 390.574219 187.496094 C 388.867188 186.464844 387.230469 185.335938 385.664062 184.105469 C 384.027344 182.855469 382.511719 181.472656 381.121094 179.949219 C 380.667969 179.460938 380.28125 178.929688 379.953125 178.351562 C 379.953125 178.269531 379.84375 178.109375 379.792969 177.984375 C 379.734375 177.828125 379.683594 177.667969 379.652344 177.503906 C 379.554688 177.113281 379.523438 176.71875 379.554688 176.320312 C 379.617188 175.621094 379.847656 174.980469 380.242188 174.402344 C 380.691406 173.785156 381.226562 173.253906 381.84375 172.804688 C 382.320312 172.433594 382.753906 172.132812 383.1875 171.84375 L 387.984375 168.789062 C 389.582031 167.785156 391.054688 166.742188 392.558594 165.59375 C 394.0625 164.441406 395.484375 163.339844 396.84375 162.125 C 398.207031 160.929688 399.46875 159.640625 400.636719 158.253906 C 401.21875 157.578125 401.75 156.863281 402.234375 156.113281 C 402.457031 155.75 402.660156 155.378906 402.84375 154.992188 C 402.921875 154.816406 403.019531 154.625 403.082031 154.449219 L 403.164062 154.226562 L 403.164062 154.355469 C 403.203125 154.441406 403.25 154.519531 403.308594 154.59375 C 403.386719 154.691406 403.484375 154.773438 403.59375 154.832031 C 403.46875 154.765625 403.359375 154.671875 403.269531 154.5625 C 403.179688 154.449219 403.117188 154.320312 403.078125 154.183594 C 403.039062 154.042969 403.027344 153.902344 403.042969 153.761719 C 403.0625 153.617188 403.109375 153.484375 403.179688 153.359375 C 403.253906 153.234375 403.347656 153.125 403.460938 153.039062 C 403.578125 152.953125 403.703125 152.890625 403.84375 152.855469 C 403.984375 152.820312 404.125 152.8125 404.269531 152.835938 C 404.410156 152.855469 404.542969 152.902344 404.667969 152.980469 Z M 404.859375 152.996094 "/><path style=" stroke:none;fill-rule:nonzero;fill:#20172a;fill-opacity:1;" d="M 441.648438 180.011719 C 441.308594 180.011719 440.984375 179.941406 440.675781 179.796875 C 440.367188 179.65625 440.101562 179.457031 439.878906 179.199219 C 439.65625 178.941406 439.5 178.648438 439.40625 178.320312 C 439.3125 177.996094 439.292969 177.664062 439.34375 177.328125 C 439.34375 176.289062 439.070312 170.613281 436.5625 167.894531 C 436.183594 167.460938 435.730469 167.128906 435.203125 166.894531 C 434.679688 166.65625 434.128906 166.542969 433.554688 166.550781 C 427.15625 166.425781 425.203125 174.257812 425.1875 174.335938 C 425.121094 174.632812 424.996094 174.90625 424.824219 175.15625 C 424.648438 175.402344 424.433594 175.609375 424.179688 175.777344 C 423.921875 175.941406 423.648438 176.054688 423.347656 176.113281 C 423.050781 176.167969 422.75 176.167969 422.453125 176.113281 C 422.15625 176.046875 421.878906 175.929688 421.628906 175.753906 C 421.378906 175.582031 421.167969 175.367188 421.003906 175.109375 C 420.835938 174.855469 420.726562 174.578125 420.667969 174.277344 C 420.613281 173.976562 420.617188 173.675781 420.675781 173.378906 C 421.300781 170.390625 424.980469 161.933594 433.472656 161.933594 L 433.632812 161.933594 C 436.191406 161.933594 439.726562 163.003906 442.015625 167.800781 C 443.453125 170.820312 444.734375 177.582031 443.503906 179.148438 C 443.023438 179.738281 442.40625 180.027344 441.648438 180.011719 Z M 441.648438 180.011719 "/><path style=" stroke:none;fill-rule:nonzero;fill:#20172a;fill-opacity:1;" d="M 376.382812 143.96875 C 376.832031 144.0625 377.265625 144.21875 377.683594 144.4375 C 378.097656 144.65625 378.488281 144.929688 378.851562 145.265625 C 379.21875 145.597656 379.550781 145.984375 379.851562 146.421875 C 380.148438 146.859375 380.410156 147.339844 380.636719 147.867188 C 380.859375 148.390625 381.039062 148.949219 381.179688 149.539062 C 381.316406 150.128906 381.410156 150.742188 381.460938 151.378906 C 381.507812 152.011719 381.511719 152.65625 381.46875 153.3125 C 381.421875 153.964844 381.335938 154.617188 381.199219 155.265625 C 381.066406 155.914062 380.890625 156.546875 380.667969 157.167969 C 380.449219 157.785156 380.191406 158.375 379.894531 158.9375 C 379.597656 159.503906 379.269531 160.027344 378.910156 160.515625 C 378.546875 161.003906 378.160156 161.445312 377.746094 161.835938 C 377.332031 162.230469 376.902344 162.566406 376.453125 162.851562 C 376.003906 163.132812 375.542969 163.355469 375.078125 163.519531 C 374.609375 163.679688 374.140625 163.78125 373.675781 163.816406 C 373.207031 163.851562 372.746094 163.820312 372.296875 163.726562 C 371.84375 163.636719 371.414062 163.480469 370.996094 163.261719 C 370.582031 163.042969 370.191406 162.769531 369.828125 162.433594 C 369.460938 162.097656 369.128906 161.714844 368.828125 161.277344 C 368.527344 160.835938 368.265625 160.355469 368.042969 159.832031 C 367.820312 159.308594 367.636719 158.75 367.5 158.160156 C 367.359375 157.566406 367.265625 156.953125 367.21875 156.320312 C 367.171875 155.683594 367.167969 155.039062 367.210938 154.386719 C 367.253906 153.730469 367.34375 153.078125 367.480469 152.429688 C 367.613281 151.78125 367.789062 151.148438 368.007812 150.53125 C 368.230469 149.914062 368.488281 149.324219 368.78125 148.757812 C 369.078125 148.195312 369.410156 147.667969 369.769531 147.183594 C 370.132812 146.695312 370.519531 146.253906 370.933594 145.859375 C 371.347656 145.46875 371.777344 145.128906 372.226562 144.847656 C 372.675781 144.566406 373.132812 144.34375 373.601562 144.179688 C 374.070312 144.015625 374.535156 143.917969 375.003906 143.882812 C 375.472656 143.847656 375.933594 143.878906 376.382812 143.96875 Z M 376.382812 143.96875 "/><path style=" stroke:none;fill-rule:nonzero;fill:#ffffff;fill-opacity:1;" d="M 377.925781 147.871094 C 378.222656 147.929688 378.488281 148.074219 378.730469 148.292969 C 378.972656 148.511719 379.164062 148.796875 379.3125 149.140625 C 379.460938 149.488281 379.550781 149.871094 379.582031 150.289062 C 379.613281 150.707031 379.585938 151.128906 379.496094 151.558594 C 379.410156 151.984375 379.265625 152.386719 379.070312 152.757812 C 378.875 153.128906 378.640625 153.445312 378.371094 153.703125 C 378.097656 153.960938 377.804688 154.144531 377.5 154.25 C 377.191406 154.359375 376.886719 154.382812 376.589844 154.320312 C 376.292969 154.257812 376.023438 154.117188 375.785156 153.898438 C 375.542969 153.675781 375.347656 153.394531 375.203125 153.046875 C 375.054688 152.703125 374.964844 152.320312 374.933594 151.902344 C 374.902344 151.484375 374.929688 151.058594 375.015625 150.632812 C 375.105469 150.203125 375.246094 149.804688 375.441406 149.433594 C 375.636719 149.0625 375.871094 148.746094 376.144531 148.488281 C 376.417969 148.226562 376.707031 148.046875 377.015625 147.9375 C 377.324219 147.832031 377.628906 147.808594 377.925781 147.871094 Z M 377.925781 147.871094 "/><path style=" stroke:none;fill-rule:nonzero;fill:#20172a;fill-opacity:1;" d="M 426.484375 139.535156 C 426.164062 139.421875 430.625 130.871094 431.953125 131.238281 C 433.28125 131.605469 445.148438 139.230469 450.011719 147.449219 C 454.875 155.664062 453.003906 156.625 452.636719 157.152344 C 451.726562 157.816406 450.746094 158.351562 449.691406 158.75 C 449.691406 158.75 438.894531 143.675781 426.484375 139.535156 Z M 426.484375 139.535156 "/><path style=" stroke:none;fill-rule:nonzero;fill:#20172a;fill-opacity:1;" d="M 394.140625 131.238281 C 394.398438 131.347656 397.339844 122.539062 396.285156 122.027344 C 395.230469 121.515625 383.617188 120.160156 375.621094 123.355469 C 367.621094 126.554688 368.070312 128.28125 367.941406 128.886719 C 368.039062 129.871094 368.269531 130.828125 368.628906 131.75 C 368.628906 131.75 384.386719 127.015625 394.140625 131.238281 Z M 394.140625 131.238281 "/><path style=" stroke:none;fill-rule:nonzero;fill:#fbb88e;fill-opacity:1;" d="M 481.632812 185.800781 C 481.296875 186.296875 476.417969 194.707031 476.371094 195.265625 C 476.003906 200.0625 477.972656 216.542969 481.601562 217.964844 C 485.585938 219.566406 501.882812 220.746094 508.648438 206.085938 C 508.648438 206.085938 519.847656 180.714844 500.957031 177.664062 C 488.734375 175.710938 483.441406 183.019531 481.632812 185.800781 Z M 481.632812 185.800781 "/><path style=" stroke:none;fill-rule:nonzero;fill:#ec6a43;fill-opacity:1;" d="M 485.746094 192.210938 C 485.746094 192.210938 482.929688 208.949219 486.863281 210.085938 C 490.800781 211.21875 501.453125 204.042969 502.761719 195.328125 C 504.074219 186.617188 489.933594 184.953125 485.746094 192.210938 Z M 485.746094 192.210938 "/><g clip-rule="nonzero" clip-path="url(#5edecb8aa8)"><g clip-rule="nonzero" clip-path="url(#7afe2d7826)"><path style=" stroke:none;fill-rule:nonzero;fill:#0571d3;fill-opacity:1;" d="M 98.625 725.175781 L 107.410156 725.175781 L 107.410156 733.726562 L 98.625 733.726562 Z M 98.625 725.175781 "/></g></g></g></svg>